<?xml version="1.0" encoding="utf-8"?>
<!-- Generator: Adobe Illustrator 27.0.0, SVG Export Plug-In . SVG Version: 6.00 Build 0)  -->
<svg version="1.1" id="Calque_1" xmlns="http://www.w3.org/2000/svg" xmlns:xlink="http://www.w3.org/1999/xlink" x="0px" y="0px"
	 viewBox="0 0 234.9 276.2" style="enable-background:new 0 0 234.9 276.2;" xml:space="preserve">
<style type="text/css">
	.st0{fill:#FBA609;}
</style>
<g>
	<circle class="st0" cx="41.9" cy="64.7" r="40.7"/>
	<circle class="st0" cx="132.5" cy="53.4" r="52"/>
	<path class="st0" d="M147.9,227.1H39.9c-14.4,0-26-11.7-26-26v-71.8c0-14.4,11.7-26,26-26h107.9c14.4,0,26,11.7,26,26v71.8
		C173.9,215.5,162.2,227.1,147.9,227.1z"/>
	<polygon class="st0" points="233.3,102.6 233.3,230 183.1,204.5 183.1,129.5 	"/>
	<polygon class="st0" points="163.2,274.7 115,274.9 94.5,254.3 73.9,275.1 24.3,275.3 63,236.6 126.2,236.6 	"/>
</g>
</svg>
